<svg xmlns="http://www.w3.org/2000/svg" version="1.1" xmlns:xlink="http://www.w3.org/1999/xlink" xmlns:svgjs="http://svgjs.com/svgjs" width="1440" height="560" preserveAspectRatio="none" viewBox="0 0 1440 560"><g mask="url(&quot;#SvgjsMask1032&quot;)" fill="none"><rect width="1440" height="560" x="0" y="0" fill="rgba(227, 253, 253, 1)"></rect><path d="M101.96190145110097 188.4603323890905L226.95296631279012 107.29018578606704 145.78281970976667-17.70087907562211 20.791754848077517 63.46926752740134z" fill="rgba(113, 201, 206, 0.44)" class="triangle-float3"></path><path d="M942.847,500.409C992.764,500.674,1029.344,459.226,1054.098,415.878C1078.595,372.98,1095.707,320.403,1069.583,278.476C1044.408,238.072,990.444,238.175,942.847,237.326C892.958,236.436,834.194,231.324,808.032,273.812C781.207,317.377,807.466,370.739,833.625,414.707C858.986,457.333,893.248,500.146,942.847,500.409" fill="rgba(113, 201, 206, 0.44)" class="triangle-float3"></path><path d="M368 477.22 a119.35 119.35 0 1 0 238.7 0 a119.35 119.35 0 1 0 -238.7 0z" fill="rgba(113, 201, 206, 0.44)" class="triangle-float2"></path><path d="M1141.0528195084698 202.81886572817265L1064.5896503077252 128.97924154483968 990.7500261243923 205.44241074558425 1067.213195325137 279.28203492891726z" fill="rgba(113, 201, 206, 0.44)" class="triangle-float3"></path><path d="M453.636,589.03C497.061,588.116,532.029,556.554,552.467,518.228C571.621,482.31,570.991,440.375,552.149,404.292C531.641,365.02,497.894,330.984,453.636,328.968C406.268,326.811,361.076,352.988,338.251,394.55C316.184,434.732,323.934,483.121,347.326,522.547C370.184,561.073,408.849,589.973,453.636,589.03" fill="rgba(113, 201, 206, 0.44)" class="triangle-float3"></path><path d="M1247.0016958659487 98.05327899590135L1092.387296206699 56.62447546898248 1050.95849267978 211.2388751282324 1205.5728923390297 252.66767865515124z" fill="rgba(113, 201, 206, 0.44)" class="triangle-float3"></path><path d="M1001.63 505.38 a164.65 164.65 0 1 0 329.3 0 a164.65 164.65 0 1 0 -329.3 0z" fill="rgba(113, 201, 206, 0.44)" class="triangle-float2"></path><path d="M852.8722470202946 100.0100375960563L859.1868613054373 190.3132290277481 949.4900527371291 183.9986147426054 943.1754384519863 93.69542331091363z" fill="rgba(113, 201, 206, 0.44)" class="triangle-float3"></path><path d="M714.048,290.145C728.89,289.152,740.938,279.419,748.322,266.506C755.644,253.701,758.414,238.135,751.117,225.316C743.753,212.379,728.925,206.808,714.048,206.294C698.033,205.741,681.099,209.225,672.258,222.591C662.575,237.229,661.552,256.77,670.785,271.696C679.625,285.986,697.283,291.267,714.048,290.145" fill="rgba(113, 201, 206, 0.44)" class="triangle-float2"></path></g><defs><mask id="SvgjsMask1032"><rect width="1440" height="560" fill="#ffffff"></rect></mask><style>
            @keyframes float1 {
                0%{transform: translate(0, 0)}
                50%{transform: translate(-10px, 0)}
                100%{transform: translate(0, 0)}
            }

            .triangle-float1 {
                animation: float1 5s infinite;
            }

            @keyframes float2 {
                0%{transform: translate(0, 0)}
                50%{transform: translate(-5px, -5px)}
                100%{transform: translate(0, 0)}
            }

            .triangle-float2 {
                animation: float2 4s infinite;
            }

            @keyframes float3 {
                0%{transform: translate(0, 0)}
                50%{transform: translate(0, -10px)}
                100%{transform: translate(0, 0)}
            }

            .triangle-float3 {
                animation: float3 6s infinite;
            }
        </style></defs></svg>